<?xml version="1.0" encoding="utf-8"?><svg viewBox="0 0 800 800" xmlns="http://www.w3.org/2000/svg" xmlns:xlink="http://www.w3.org/1999/xlink"><style>:root>svg{display:none}:root>svg:target{display:block}</style><svg fill="none" viewBox="0 0 13.474 7.637" id="svg--arrow" xmlns="http://www.w3.org/2000/svg"><path d="M12.57.9 6.73 6.73.9.9" stroke="#3A3A3A" stroke-width="1.8" stroke-linejoin="round" stroke-linecap="round"/></svg><svg viewBox="0 0 24 24" fill="none" id="svg--close" xmlns="http://www.w3.org/2000/svg"><path d="M20.746 3.329a1 1 0 0 0-1.415 0l-7.294 7.294-7.294-7.294a1 1 0 1 0-1.414 1.414l7.294 7.294-7.294 7.294a1 1 0 0 0 1.414 1.415l7.294-7.295 7.294 7.295a1 1 0 0 0 1.415-1.415l-7.295-7.294 7.295-7.294a1 1 0 0 0 0-1.414Z" fill="#0F0F0F"/></svg><svg fill="none" viewBox="0 0 40 40" id="svg--customer-support" xmlns="http://www.w3.org/2000/svg"><defs><clipPath id="ca"><path fill="#fff" fill-opacity="0" d="M0 0h40v40H0z"/></clipPath></defs><path fill="none" d="M0 0h40v40H0z"/><g clip-path="url(#ca)"><path d="M36.46 15.97C36.19 7.12 28.91 0 20 0 11.08 0 3.8 7.12 3.53 15.97l-1.18 1.18v8.04l1.17 1.17v5.48c0 3.2 2.61 5.8 5.81 5.8h1.46A3.53 3.53 0 0 0 14.11 40h2.36c1.53 0 2.84-.99 3.32-2.36H20c5.68 0 10.43-4.05 11.52-9.41h3.08l3.04-3.04v-8.04l-1.18-1.18ZM20 2.35c6.98 0 12.79 5.09 13.92 11.76h-2.4C30.43 8.75 25.68 4.7 20 4.7c-5.69 0-10.44 4.05-11.53 9.41h-2.4C7.2 7.44 13.01 2.35 20 2.35Zm9.11 11.76c-3.8-.01-6.49.22-8.71-3.01l-1.07-1.58-.92 1.67c-1.35 2.43-3.17 2.92-5.47 2.92h-2.06c1.05-4.05 4.74-7.06 9.12-7.06 4.37 0 8.06 3.01 9.11 7.06ZM8.23 25.88H6.36L4.7 24.21v-6.08l1.66-1.66h1.87v9.41Zm-2.35 5.96v-3.61h2.58c.45 2.19 1.51 4.21 3.08 5.83-.33.35-.59.77-.75 1.23H9.33c-1.9 0-3.45-1.55-3.45-3.45Zm10.59 5.8h-2.36c-.65 0-1.17-.53-1.17-1.17 0-.65.52-1.18 1.17-1.18h2.36c.64 0 1.17.53 1.17 1.18 0 .64-.53 1.17-1.17 1.17Zm12.94-11.76c0 5.19-4.23 9.41-9.41 9.41h-.21a3.52 3.52 0 0 0-3.32-2.35c-2.42 0-2.38-.02-2.68.01a9.334 9.334 0 0 1-3.21-7.07v-9.41h2.36c2.08 0 4.61-.35 6.58-2.74 2.59 2.72 5.75 2.74 8.59 2.74h1.3v9.41Zm5.88-1.67-1.66 1.67h-1.87v-9.41h1.87l1.66 1.66v6.08Z" fill="#3A3A3A"/></g></svg><svg viewBox="0 0 64 64" id="svg--delete_item_icon" xmlns="http://www.w3.org/2000/svg"><g data-name="Remove Cart"><path d="M45.5 10.5h-16a2.996 2.996 0 0 0-3 3v16a2.996 2.996 0 0 0 3 3h16a2.996 2.996 0 0 0 3-3v-16a2.996 2.996 0 0 0-3-3zm-4 12.5h-8a1.5 1.5 0 0 1 0-3h8a1.5 1.5 0 0 1 0 3z" style="fill:#898989"/><path d="M52 42H23.512l.763 3.276a.87.87 0 0 0 .801.724H54.5a1.5 1.5 0 0 1 0 3H25.076a3.85 3.85 0 0 1-3.723-3.043L12.916 9.72A.866.866 0 0 0 12.12 9H5.5a1.5 1.5 0 0 1 0-3h6.619a3.849 3.849 0 0 1 3.72 3.04L22.813 39H52c.222 0 .61-.39.728-1.097l4.247-21.049c.18-1.08-.438-1.854-.737-1.854a1.5 1.5 0 0 1 0-3c2.428 0 4.15 2.628 3.687 5.398l-4.248 21.05A3.933 3.933 0 0 1 52 42zM32 55a4 4 0 1 1-4-4 4 4 0 0 1 4 4zM54 55a4 4 0 1 1-4-4 4 4 0 0 1 4 4z" style="fill:#898989"/></g></svg><svg fill="none" viewBox="0 0 40 40" id="svg--guarantee" xmlns="http://www.w3.org/2000/svg"><defs><clipPath id="ea"><path fill="#fff" fill-opacity="0" d="M0 0h40v40H0z"/></clipPath></defs><path fill="none" d="M0 0h40v40H0z"/><g clip-path="url(#ea)"><path d="M37.85 14.17c-.53-1.64-.3-4.09-1.67-5.98-1.38-1.91-3.79-2.45-5.15-3.45-1.34-.98-2.59-3.12-4.85-3.86-2.2-.71-4.44.26-6.18.26-1.75 0-3.99-.97-6.19-.26-2.26.74-3.51 2.88-4.85 3.86-1.36.99-3.77 1.54-5.15 3.45-1.37 1.89-1.15 4.35-1.67 5.98C1.64 15.72 0 17.58 0 20c0 2.41 1.63 4.26 2.14 5.82.53 1.64.3 4.09 1.67 5.98 1.38 1.91 3.79 2.45 5.15 3.45 1.34.98 2.59 3.12 4.85 3.86 2.2.71 4.45-.26 6.19-.26 1.73 0 3.99.97 6.18.26 2.26-.74 3.51-2.88 4.85-3.86 1.36-.99 3.77-1.54 5.15-3.45 1.37-1.89 1.15-4.35 1.67-5.98.5-1.55 2.15-3.41 2.15-5.82 0-2.42-1.64-4.27-2.15-5.83Zm-2.97 10.69c-.62 1.9-.46 4.04-1.23 5.11-.79 1.09-2.86 1.59-4.46 2.76-1.58 1.15-2.69 2.99-3.98 3.41-1.22.39-3.21-.41-5.21-.41-2.03 0-3.99.81-5.22.41-1.29-.42-2.39-2.26-3.98-3.41-1.59-1.17-3.67-1.67-4.46-2.76-.77-1.07-.62-3.22-1.23-5.11-.6-1.85-1.99-3.46-1.99-4.86 0-1.41 1.39-3.01 1.99-4.87.62-1.9.46-4.04 1.23-5.11.79-1.09 2.86-1.59 4.46-2.76 1.59-1.16 2.69-2.98 3.98-3.41 1.22-.39 3.21.41 5.21.41 2.03 0 3.99-.81 5.22-.41 1.29.42 2.4 2.26 3.98 3.41 1.59 1.17 3.67 1.67 4.46 2.76.77 1.07.62 3.22 1.23 5.11.6 1.85 1.99 3.46 1.99 4.87 0 1.4-1.39 3-1.99 4.86Zm-7.69-9.88c.61.61.61 1.6 0 2.21l-7.82 7.82c-.61.61-1.6.61-2.21 0l-4.36-4.37a1.563 1.563 0 0 1 2.21-2.21l3.26 3.27 6.71-6.72c.61-.61 1.6-.61 2.21 0Z" fill="#3A3A3A"/></g></svg><svg fill="none" viewBox="0 0 15.203 11.64" id="svg--hero-slider-arrow" xmlns="http://www.w3.org/2000/svg"><path d="m14.96 6.4-4.99 5c-.16.16-.35.24-.55.24-.21 0-.4-.08-.57-.24a.815.815 0 0 1 0-1.14l3.63-3.64H.8c-.45 0-.8-.36-.8-.8 0-.44.35-.8.8-.8h11.68L8.85 1.38a.827.827 0 0 1 0-1.15c.33-.32.83-.32 1.15 0l4.98 5c.3.35.3.86-.02 1.17Z" fill="#000"/></svg><svg fill="none" viewBox="0 0 24 24" id="svg--like" xmlns="http://www.w3.org/2000/svg"><path fill="none" d="M0 0h24v24H0z"/><path d="M11.99 5.58C18-2 32 10 11.99 21.05-8 10 6-2 11.99 5.58Z" stroke="#FFF" stroke-width="1.8"/></svg><svg fill="none" viewBox="0 0 17.979 18.001" id="svg--mail-btn" xmlns="http://www.w3.org/2000/svg"><path d="M17.77.21a.747.747 0 0 0-.79-.17l-16.5 6c-.14.05-.27.15-.35.28-.09.12-.13.27-.13.42a.725.725 0 0 0 .48.7l6.44 2.58 4.76-4.77 1.05 1.05-4.77 4.78 2.58 6.44c.05.14.15.26.27.35.13.08.27.13.42.13.16-.01.3-.06.43-.14a.78.78 0 0 0 .26-.36l6-16.5c.06-.13.07-.28.04-.42a.872.872 0 0 0-.19-.37Z" fill="#FFF"/></svg><svg fill="none" viewBox="0 0 20 20" id="svg--phone" xmlns="http://www.w3.org/2000/svg"><path fill="none" d="M0 0h20v20H0z"/><path d="m13.43 13.06-.52.78c-.1.15-.24.28-.42.33-.59.15-2.15.22-4.52-2.15C5.6 9.65 5.67 8.09 5.82 7.5c.05-.18.18-.32.33-.42l.78-.52c.57-.38.73-1.16.35-1.73L5.82 2.64c-.34-.51-.99-.7-1.54-.46l-.66.28c-.5.22-.91.6-1.15 1.09-.21.41-.36.83-.38 1.29-.07 1.43.24 4.96 4.17 8.89 3.93 3.93 7.46 4.24 8.89 4.17.46-.02.88-.17 1.29-.38.49-.24.87-.65 1.09-1.15l.28-.66c.24-.55.05-1.2-.46-1.54l-2.19-1.46c-.57-.38-1.35-.22-1.73.35Z" fill="#898989"/></svg><svg fill="none" viewBox="0 0 16 16" id="svg--search" xmlns="http://www.w3.org/2000/svg"><path fill-rule="evenodd" clip-rule="evenodd" d="M6.75 2.233a4.517 4.517 0 1 0 0 9.034 4.517 4.517 0 0 0 0-9.034ZM.433 6.75a6.317 6.317 0 1 1 11.375 3.785l3.495 3.495a.9.9 0 0 1-1.273 1.273l-3.495-3.495A6.317 6.317 0 0 1 .434 6.75Z" fill="#333"/></svg><svg fill="none" viewBox="0 0 24 24" id="svg--share" xmlns="http://www.w3.org/2000/svg"><defs><clipPath id="ka"><path fill="#fff" fill-opacity="0" d="M0 0h24v24H0z"/></clipPath></defs><path fill="none" d="M0 0h24v24H0z"/><g clip-path="url(#ka)"><path d="M18 16c-.79 0-1.5.31-2.04.8l-7.05-4.1c.04-.23.09-.46.09-.7 0-.24-.05-.47-.09-.7l7.05-4.11c.54.5 1.24.81 2.04.81 1.66 0 3-1.34 3-3s-1.34-3-3-3-3 1.34-3 3c0 .24.04.47.09.7L8.04 9.81C7.5 9.31 6.79 9 6 9c-1.66 0-3 1.34-3 3s1.34 3 3 3c.79 0 1.5-.31 2.04-.81l7.04 4.11c-.05.23-.08.46-.08.7a2.989 2.989 0 0 0 1.85 2.77c.55.22 1.15.28 1.73.17.58-.12 1.12-.4 1.54-.82.42-.42.7-.96.82-1.54.11-.58.05-1.18-.17-1.73A2.989 2.989 0 0 0 18 16Z" fill="#FFF"/></g></svg><svg fill="none" viewBox="0 0 40 40" id="svg--shipping" xmlns="http://www.w3.org/2000/svg"><defs><clipPath id="la"><path fill="#fff" fill-opacity="0" d="M0 0h40v40H0z"/></clipPath></defs><path fill="none" d="M0 0h40v40H0z"/><g clip-path="url(#la)"><path d="M36.89 20.73V2.51c0-.65-.52-1.17-1.17-1.17H4.19c-.65 0-1.17.52-1.17 1.17v19.67c-.57.08-1.13.3-1.62.67-1.55 1.1-1.91 3.55-.62 5.07l5.3 6.42c3.28 3.84 6.77 4.31 11.95 4.31 4.45 0 6.43.02 10.31-.86l3.77-.9c.61.85 1.59 1.4 2.68 1.4h1.86c1.84 0 3.35-1.58 3.35-3.52V24.25c0-1.86-1.38-3.39-3.11-3.52Zm-5.29 2.42-1.56-.8a9.325 9.325 0 0 0-8.18-.13c-.71.28-2.27 1.23-3.08 1.19h-5.44a3.28 3.28 0 0 0-3.27 3.28v.85l-.03-.03-3.89-4.21c-.23-.26-.5-.47-.78-.64V10.98H15v4.32c0 .65.52 1.17 1.17 1.17h7.43c.65 0 1.18-.52 1.18-1.17v-4.32h9.76v9.75c-1.37.11-2.52 1.09-2.94 2.42ZM17.35 10.98h5.07v3.14h-5.07v-3.14Zm17.19-2.35h-9.76V3.69h9.76v4.94ZM22.42 3.69v4.94h-5.07V3.69h5.07Zm-7.42 0v4.94H5.37V3.69H15ZM27.79 35.5c-3.58.82-5.73.79-9.72.79-4.86 0-7.21-.08-10.17-3.45l-5.3-6.42c-.92-1.2.75-2.62 1.82-1.53l3.89 4.22c1.02 1.08 2.31 1.68 3.91 1.71h10.77c.65 0 1.17-.52 1.17-1.17 0-.65-.52-1.18-1.17-1.18H12.42v-1.78c0-.51.41-.92.92-.92h5.44c1.23.09 2.99-.94 4.07-1.41a6.96 6.96 0 0 1 6.12.09l2.47 1.25v8.93l-3.65.87Zm9.85-.73c0 .64-.44 1.17-.99 1.17h-1.86c-.55 0-1-.53-1-1.17V24.25c0-.65.45-1.18 1-1.18h1.86c.55 0 .99.53.99 1.18v10.52Z" fill="#3A3A3A"/></g></svg><svg fill="none" viewBox="0 0 15.203 11.64" id="svg--show-more" xmlns="http://www.w3.org/2000/svg"><rect width="100%" height="100%"/><g class="mcurrentLayer"><path d="m14.96 6.4-4.99 5c-.16.16-.35.24-.55.24-.21 0-.4-.08-.57-.24a.815.815 0 0 1 0-1.14l3.63-3.64H.8c-.45 0-.8-.36-.8-.8 0-.44.35-.8.8-.8h11.68L8.85 1.38a.827.827 0 0 1 0-1.15c.33-.32.83-.32 1.15 0l4.98 5c.3.35.3.86-.02 1.17Z" fill="#fff" class="mselected"/></g></svg><svg fill="none" viewBox="0 0 15.833 18.011" id="svg--subtract" xmlns="http://www.w3.org/2000/svg"><path d="M8.89 17.7c2.11-1.44 6.94-5.23 6.94-9.79C15.83 3.54 12.28 0 7.91 0S0 3.54 0 7.91c0 4.56 4.82 8.35 6.94 9.79a1.7 1.7 0 0 0 1.95 0Zm-.98-7.29a2.5 2.5 0 0 0 0-5 2.5 2.5 0 0 0 0 5Z" fill="#898989" fill-rule="evenodd"/></svg><svg fill="none" viewBox="0 0 40 40" id="svg--trophy" xmlns="http://www.w3.org/2000/svg"><defs><clipPath id="oa"><path fill="#fff" fill-opacity="0" d="M0 0h40v40H0z"/></clipPath></defs><path fill="none" d="M0 0h40v40H0z"/><g clip-path="url(#oa)"><path d="M32.9 2.34c-.86 0-1.66.23-2.35.63v-1.8c0-.65-.52-1.17-1.17-1.17H10.63c-.64 0-1.17.52-1.17 1.17v1.81A4.697 4.697 0 0 0 2.4 7.03c0 1.97.59 3.87 1.69 5.51 1.89 2.77 4.21 3.5 6.13 4.26 1.1 2.76 3.34 4.95 6.13 5.98l-.86 5.5h-.17c-1.94 0-3.52 1.57-3.52 3.51v5.86h-1.17c-.64 0-1.17.53-1.17 1.17 0 .65.53 1.18 1.17 1.18h18.75c.65 0 1.17-.53 1.17-1.18 0-.64-.52-1.17-1.17-1.17h-1.17v-5.86c0-1.94-1.58-3.51-3.52-3.51h-.16l-.87-5.5c2.8-1.04 5.04-3.23 6.14-5.99 1.82-.72 4.2-1.45 6.1-4.25a9.857 9.857 0 0 0 1.69-5.51c0-2.59-2.11-4.69-4.69-4.69ZM9.45 13.97a7.434 7.434 0 0 1-4.7-6.94c0-1.3 1.05-2.35 2.34-2.35 1.29 0 2.35 1.05 2.35 2.35 0 .08 0 .16.02.24v5.62c0 .37.02.74.06 1.11l-.07-.03Zm16.42 23.68H14.15v-2.34h11.72v2.34Zm-1.18-7.03c.65 0 1.18.53 1.18 1.17v1.17H14.15v-1.17c0-.64.52-1.17 1.17-1.17h9.37Zm-6.83-2.34.78-4.94a10.392 10.392 0 0 0 2.74 0l.77 4.94h-4.29Zm10.35-15.39c0 4.52-3.68 8.2-8.2 8.2-4.53 0-8.21-3.68-8.21-8.2V7.03h16.41v5.86Zm0-8.21H11.8V2.34h16.41v2.34Zm2.33 9.29-.04.02c.03-.36.05-.73.05-1.1V7.03c0-1.3 1.06-2.35 2.35-2.35s2.34 1.05 2.34 2.35c0 3.07-1.84 5.8-4.7 6.94Z" fill="#3A3A3A"/></g></svg></svg>